<svg width="16" height="17" viewBox="0 0 16 17" fill="none" xmlns="http://www.w3.org/2000/svg">
<path d="M7.64668 5.66772C6.08281 5.66772 4.81445 6.93609 4.81445 8.49996C4.81445 10.0638 6.08281 11.3322 7.64668 11.3322C9.21055 11.3322 10.4789 10.0638 10.4789 8.49996C10.4789 6.93609 9.21387 5.66772 7.64668 5.66772ZM7.64668 9.91774C6.86309 9.91774 6.22891 9.28356 6.22891 8.49996C6.22891 7.71636 6.86309 7.08218 7.64668 7.08218C8.43027 7.08218 9.06445 7.71636 9.06445 8.49996C9.06445 9.28356 8.43027 9.91774 7.64668 9.91774Z" fill="#828282"/>
<path d="M14.2309 9.84473L13.9155 9.66211C14.0582 8.8918 14.0582 8.10156 13.9155 7.33125L14.2309 7.14863C15.2469 6.56094 15.5955 5.2627 15.0112 4.24336C14.4235 3.22734 13.1252 2.87871 12.1059 3.46309L11.7905 3.6457C11.1961 3.1377 10.5121 2.74258 9.77172 2.48359V2.125C9.77172 0.95293 8.81879 0 7.64672 0C6.47465 0 5.52172 0.95293 5.52172 2.125V2.48691C4.78461 2.74922 4.10063 3.14434 3.50297 3.65234L3.18754 3.46973C2.17152 2.88535 0.873281 3.23398 0.285586 4.25C-0.302109 5.26602 0.0465234 6.56758 1.06254 7.15527L1.37797 7.33789C1.2352 8.1082 1.2352 8.89844 1.37797 9.66875L1.06254 9.85137C0.0465234 10.4324 -0.302109 11.734 0.285586 12.75C0.873281 13.766 2.17152 14.1146 3.19086 13.5303L3.50629 13.3477C4.10063 13.8557 4.78461 14.2508 5.52504 14.5098V14.875C5.52504 16.0471 6.47797 17 7.65004 17C8.82211 17 9.77504 16.0471 9.77504 14.875V14.5131C10.5121 14.2508 11.1961 13.8557 11.7938 13.3477L12.1092 13.5303C13.1252 14.118 14.4268 13.7693 15.0145 12.75C15.5989 11.7307 15.2502 10.4324 14.2309 9.84473ZM12.428 7.17188C12.667 8.0418 12.667 8.9582 12.428 9.82812C12.3416 10.1402 12.4778 10.4689 12.7567 10.6316L13.5237 11.0766C13.8623 11.2725 13.9786 11.7041 13.7827 12.0461C13.5868 12.3848 13.1551 12.501 12.8131 12.3051L12.0428 11.8602C11.7639 11.6975 11.4086 11.7473 11.1829 11.9764C10.552 12.6205 9.75844 13.0787 8.8852 13.3045C8.57309 13.3842 8.35395 13.6664 8.35395 13.9918V14.875C8.35395 15.2668 8.0352 15.5822 7.64672 15.5822C7.25492 15.5822 6.93949 15.2635 6.93949 14.875V13.9885C6.93949 13.6664 6.72035 13.3842 6.40824 13.3012C5.535 13.0754 4.74145 12.6139 4.11059 11.9697C3.88481 11.7373 3.52953 11.6908 3.25063 11.8535L2.48363 12.2984C2.14496 12.4977 1.71332 12.3814 1.5141 12.0461C1.31488 11.7074 1.43109 11.2758 1.76645 11.0766C1.76977 11.0766 1.77309 11.0732 1.77309 11.0732L2.54008 10.6283C2.81898 10.4656 2.95512 10.1369 2.86879 9.8248C2.62973 8.95488 2.62973 8.03848 2.86879 7.16855C2.9518 6.85977 2.81898 6.53105 2.54008 6.36836L1.77309 5.92344C1.43441 5.72754 1.3182 5.2959 1.5141 4.95391C1.71 4.61191 2.14164 4.49902 2.48363 4.69492L3.25395 5.13984C3.53285 5.30254 3.88813 5.25605 4.11391 5.02695C4.74477 4.38281 5.53832 3.92461 6.41156 3.69883C6.72699 3.61914 6.94613 3.33359 6.94281 3.0082V2.125C6.94281 1.7332 7.26156 1.41777 7.65004 1.41777C8.03852 1.41777 8.35727 1.73652 8.35727 2.125V3.01152C8.35727 3.33359 8.57641 3.61582 8.88852 3.69883C9.76176 3.92461 10.5553 4.38613 11.1862 5.03027C11.412 5.2627 11.7672 5.30918 12.0461 5.14648L12.8131 4.70156C13.1518 4.50234 13.5834 4.61855 13.7827 4.95391C13.9819 5.29258 13.8657 5.72422 13.5303 5.92344C13.527 5.92344 13.5237 5.92676 13.5237 5.92676L12.7567 6.37168C12.4778 6.53437 12.3416 6.86309 12.428 7.17188Z" fill="#828282"/>
</svg>
